<svg class="menu-desktop__logo mini-logo" id="Layer_1" data-name="Layer 1" xmlns="http://www.w3.org/2000/svg" viewBox="0 0 382 300"><defs><style>.cls-1{fill:#fe5000;}</style></defs><title>quicktech_versoes</title><path class="cls-1" d="M283.74,192.75a27.23,27.23,0,0,1-6.71-1.83,31.81,31.81,0,0,1-9.88-6.66c-.62-.63-1.12-1.36-1.68-2a34.68,34.68,0,0,0,5.87-5.11,57.1,57.1,0,0,0,11.89-17.54,53.35,53.35,0,0,0,4.32-21.47,54,54,0,0,0-4.32-21.58A55,55,0,0,0,271.34,99a57.72,57.72,0,0,0-17.65-11.81,54.41,54.41,0,0,0-21.54-4.32H149.69a53.64,53.64,0,0,0-21.44,4.32A57.5,57.5,0,0,0,110.7,99,54.81,54.81,0,0,0,94.45,138.1a53,53,0,0,0,4.36,21.47A56.1,56.1,0,0,0,128.25,189a53.14,53.14,0,0,0,21.44,4.32h8.41l9.76-19.52a3.21,3.21,0,0,0-2.88-4.66H149.69a30.48,30.48,0,0,1-12.09-2.4,31.18,31.18,0,0,1-16.53-16.55,31.53,31.53,0,0,1,0-24.18,31.79,31.79,0,0,1,6.65-9.87,31.08,31.08,0,0,1,9.88-6.64,30,30,0,0,1,12.09-2.43h82.46a29.74,29.74,0,0,1,12.06,2.43,31,31,0,0,1,9.88,6.64,31.85,31.85,0,0,1,6.67,9.87,31.29,31.29,0,0,1,0,24.18,31.3,31.3,0,0,1-16.55,16.55,30.23,30.23,0,0,1-12.06,2.4H205.09a20.18,20.18,0,0,0-13.76,5.42l-20.14,18.76h61a54.67,54.67,0,0,0,10.63-1.15,55.45,55.45,0,0,0,7.35,9.14,56.16,56.16,0,0,0,17.55,11.89A51.1,51.1,0,0,0,283,217.12a2.86,2.86,0,0,0,3.11-2.87V195.57A2.82,2.82,0,0,0,283.74,192.75Zm-35.23-54.67a16.61,16.61,0,1,0-16.61,16.6A16.61,16.61,0,0,0,248.51,138.08Z"></path></svg>