<svg class="footer-page__details__logo" id="Layer_1" data-name="Layer 1" xmlns="http://www.w3.org/2000/svg" viewBox="0 0 1366 300"><defs><style>.cls-1{fill:#fe5000;}.cls-2{fill:#1b192b;}</style></defs><title>quicktech_versoes</title><path class="cls-1" d="M340.8,192.75a27.35,27.35,0,0,1-6.71-1.83,31.65,31.65,0,0,1-9.87-6.66c-.63-.63-1.13-1.36-1.69-2a34.68,34.68,0,0,0,5.87-5.11,57.1,57.1,0,0,0,11.89-17.54,53.35,53.35,0,0,0,4.32-21.47,54,54,0,0,0-4.32-21.58A55,55,0,0,0,328.4,99a57.72,57.72,0,0,0-17.65-11.81,54.41,54.41,0,0,0-21.54-4.32H206.75a53.63,53.63,0,0,0-21.43,4.32A57.42,57.42,0,0,0,167.76,99a54.81,54.81,0,0,0-16.25,39.11,53,53,0,0,0,4.36,21.47A56.08,56.08,0,0,0,185.32,189a53.12,53.12,0,0,0,21.43,4.32h8.41l9.77-19.52a3.22,3.22,0,0,0-2.88-4.66h-15.3a30.48,30.48,0,0,1-12.09-2.4,31.27,31.27,0,0,1-16.53-16.55,31.53,31.53,0,0,1,0-24.18,31.65,31.65,0,0,1,6.66-9.87,30.92,30.92,0,0,1,9.87-6.64,30,30,0,0,1,12.09-2.43h82.46a29.71,29.71,0,0,1,12.06,2.43,30.86,30.86,0,0,1,9.88,6.64,31.85,31.85,0,0,1,6.67,9.87,31.29,31.29,0,0,1,0,24.18,31.3,31.3,0,0,1-16.55,16.55,30.2,30.2,0,0,1-12.06,2.4H262.15a20.19,20.19,0,0,0-13.76,5.42l-20.13,18.76h60.95a54.67,54.67,0,0,0,10.63-1.15,55.45,55.45,0,0,0,7.35,9.14,56.09,56.09,0,0,0,17.56,11.89A51,51,0,0,0,340,217.12a2.86,2.86,0,0,0,3.11-2.87V195.57A2.82,2.82,0,0,0,340.8,192.75Zm-35.23-54.67A16.61,16.61,0,1,0,289,154.68,16.61,16.61,0,0,0,305.57,138.08Z"></path><path class="cls-2" d="M509.42,107.15h10.34a1.59,1.59,0,0,1,1.59,1.59v38a8.62,8.62,0,0,0,8.68,8.67h43a8.23,8.23,0,0,0,6.09-2.52,8.5,8.5,0,0,0,2.48-6.15V108.74a1.59,1.59,0,0,1,1.59-1.59h10.45a1.59,1.59,0,0,1,1.59,1.59v38a21.88,21.88,0,0,1-6.54,15.72,23.2,23.2,0,0,1-7.09,4.74,21.36,21.36,0,0,1-8.57,1.74H530a21.61,21.61,0,0,1-8.68-1.74,22.66,22.66,0,0,1-7.05-4.74,21.93,21.93,0,0,1-4.72-7,21.43,21.43,0,0,1-1.75-8.67V108.74A1.59,1.59,0,0,1,509.42,107.15Z"></path><rect class="cls-2" x="605.97" y="107.15" width="13.53" height="61.74" rx="1.59" ry="1.59"></rect><path class="cls-2" d="M721.81,157V167.3a1.59,1.59,0,0,1-1.59,1.59H652.4a21.59,21.59,0,0,1-8.67-1.74A22.08,22.08,0,0,1,632,155.37a21.62,21.62,0,0,1-1.76-8.68V129.33a21.44,21.44,0,0,1,1.76-8.65,22.73,22.73,0,0,1,4.73-7.11,21.21,21.21,0,0,1,15.71-6.42h67.82a1.59,1.59,0,0,1,1.59,1.59v10.35a1.59,1.59,0,0,1-1.59,1.59H652.4a8.64,8.64,0,0,0-8.67,8.65v17.36a8.67,8.67,0,0,0,8.67,8.68h67.82A1.59,1.59,0,0,1,721.81,157Z"></path><path class="cls-2" d="M746,131.25h28.7a10.46,10.46,0,0,0,7.36-3l20.73-20.61a1.56,1.56,0,0,1,1.12-.46h14.41a1.58,1.58,0,0,1,1.12,2.71L791.33,138l28.15,28.16a1.59,1.59,0,0,1-1.13,2.71H803.94a1.56,1.56,0,0,1-1.12-.46l-20.73-20.7a10.41,10.41,0,0,0-7.37-3.06H746V167.3a1.59,1.59,0,0,1-1.59,1.59H734.11a1.59,1.59,0,0,1-1.59-1.59V108.74a1.59,1.59,0,0,1,1.59-1.59h10.33a1.59,1.59,0,0,1,1.59,1.59Z"></path><path class="cls-1" d="M833,107.15h76.83a1.59,1.59,0,0,1,1.59,1.59v10.35a1.59,1.59,0,0,1-1.59,1.59h-31V167.3a1.59,1.59,0,0,1-1.59,1.59H865.54A1.59,1.59,0,0,1,864,167.3V120.68H833a1.59,1.59,0,0,1-1.59-1.59V108.74A1.59,1.59,0,0,1,833,107.15Z"></path><path class="cls-1" d="M1011.65,157V167.3a1.59,1.59,0,0,1-1.59,1.59H942.25a21.67,21.67,0,0,1-8.68-1.74,22.08,22.08,0,0,1-11.77-11.78,21.61,21.61,0,0,1-1.75-8.68V129.33a21.43,21.43,0,0,1,1.75-8.65,22.73,22.73,0,0,1,4.73-7.11A21.88,21.88,0,0,1,942.25,107l67.81.11a1.59,1.59,0,0,1,1.59,1.59v10.35a1.59,1.59,0,0,1-1.59,1.59H942.25a8.62,8.62,0,0,0-8.68,8.65v1.81h56.55a1.59,1.59,0,0,1,1.59,1.59v10.45a1.59,1.59,0,0,1-1.59,1.59H933.57v1.92a8.66,8.66,0,0,0,8.68,8.68h67.81A1.6,1.6,0,0,1,1011.65,157Z"></path><path class="cls-1" d="M1113.44,157V167.3a1.59,1.59,0,0,1-1.59,1.59H1044a21.67,21.67,0,0,1-8.68-1.74,22.56,22.56,0,0,1-7-4.74,22.16,22.16,0,0,1-4.72-7,21.44,21.44,0,0,1-1.75-8.68V129.33a21.27,21.27,0,0,1,1.75-8.65,22.71,22.71,0,0,1,4.72-7.11A21.88,21.88,0,0,1,1044,107l67.82.11a1.59,1.59,0,0,1,1.59,1.59v10.35a1.59,1.59,0,0,1-1.59,1.59H1044a8.66,8.66,0,0,0-8.68,8.65v17.36a8.69,8.69,0,0,0,8.68,8.68h67.82A1.59,1.59,0,0,1,1113.44,157Z"></path><path class="cls-1" d="M1137.76,131.6h63.1V108.74a1.59,1.59,0,0,1,1.59-1.59h10.45a1.59,1.59,0,0,1,1.59,1.59V167.3a1.59,1.59,0,0,1-1.59,1.59h-10.45a1.59,1.59,0,0,1-1.59-1.59V145.12h-63.1V167.3a1.59,1.59,0,0,1-1.59,1.59h-10.34a1.59,1.59,0,0,1-1.59-1.59V108.74a1.59,1.59,0,0,1,1.59-1.59h10.34a1.59,1.59,0,0,1,1.59,1.59Z"></path><path class="cls-2" d="M487.25,163.83a14.58,14.58,0,0,1-.94-1.14,19,19,0,0,0,3.28-2.86,31.89,31.89,0,0,0,6.65-9.8,29.92,29.92,0,0,0,2.41-12A30.24,30.24,0,0,0,496.24,126a30.79,30.79,0,0,0-6.65-9.81,32.36,32.36,0,0,0-9.87-6.6,30.39,30.39,0,0,0-12-2.41h-46.1a30,30,0,0,0-12,2.41,32.2,32.2,0,0,0-9.81,6.6A30.69,30.69,0,0,0,390.7,138a29.6,29.6,0,0,0,2.44,12,31.46,31.46,0,0,0,16.46,16.45,29.62,29.62,0,0,0,12,2.41h46.1a30.17,30.17,0,0,0,6-.65,30.72,30.72,0,0,0,4.07,5.12,31.23,31.23,0,0,0,9.82,6.65,28.64,28.64,0,0,0,8.54,2.19,1.6,1.6,0,0,0,1.74-1.6v-9.32c0-2.39-1.07-2.53-2.95-3a15.81,15.81,0,0,1-2.11-.7A17.64,17.64,0,0,1,487.25,163.83Zm-65.67-8.45a17.07,17.07,0,0,1-6.76-1.35,17.76,17.76,0,0,1-5.52-3.73,17.55,17.55,0,0,1-3.72-5.52,17.72,17.72,0,0,1,0-13.52,17.74,17.74,0,0,1,3.72-5.51,17.2,17.2,0,0,1,5.52-3.71,16.74,16.74,0,0,1,6.76-1.37h46.1a16.55,16.55,0,0,1,6.74,1.37,17.13,17.13,0,0,1,5.53,3.71,17.74,17.74,0,0,1,3.72,5.51,17.48,17.48,0,0,1,0,13.52,17.44,17.44,0,0,1-9.25,9.25,16.87,16.87,0,0,1-6.74,1.35Z"></path></svg>